<svg xmlns="http://www.w3.org/2000/svg" width="204" height="84" viewBox="0 0 204 84">
<defs>
<filter id="glow" x="-30%" y="-30%" width="160%" height="160%"><feGaussianBlur stdDeviation="3" result="blur"/><feComposite in="SourceGraphic" in2="blur" operator="over"/></filter>
<linearGradient id="fav-0" x1="0%" y1="0%" x2="100%" y2="100%"><stop offset="0%" stop-color="#00f2fe"/><stop offset="50%" stop-color="#7f00ff"/><stop offset="100%" stop-color="#f093fb"/></linearGradient>
</defs>
<g transform="translate(20, 10)">
<rect width="48" height="48" rx="6" fill="#0d1117" stroke="url(#fav-0)" stroke-width="2" filter="url(#glow)"/>
<svg x="8" y="8" width="32" height="32" viewBox="0 0 24 24" fill="#FFFFFF">
<title>PyTorch</title><path d="M12.005 0L4.952 7.053a9.865 9.865 0 000 14.022 9.866 9.866 0 0014.022 0c3.984-3.9 3.986-10.205.085-14.023l-1.744 1.743c2.904 2.905 2.904 7.634 0 10.538s-7.634 2.904-10.538 0-2.904-7.634 0-10.538l4.647-4.646.582-.665zm3.568 3.899a1.327 1.327 0 00-1.327 1.327 1.327 1.327 0 001.327 1.328A1.327 1.327 0 0016.9 5.226 1.327 1.327 0 0015.573 3.9z"/>
</svg>
</g>
<text x="44" y="71" fill="#8b949e" font-family="-apple-system,BlinkMacSystemFont,'Segoe UI',Helvetica,Arial,sans-serif" font-size="11" text-anchor="middle">PyTorch</text>
<g transform="translate(78, 10)">
<rect width="48" height="48" rx="6" fill="#0d1117" stroke="none" stroke-width="0" />
<svg x="8" y="8" width="32" height="32" viewBox="0 0 24 24" fill="#FFFFFF">
<title>TensorFlow</title><path d="M1.292 5.856L11.54 0v24l-4.095-2.378V7.603l-6.168 3.564.015-5.31zm21.43 5.311l-.014-5.31L12.46 0v24l4.095-2.378V14.87l3.092 1.788-.018-4.618-3.074-1.756V7.603l6.168 3.564z"/>
</svg>
</g>
<text x="102" y="71" fill="#8b949e" font-family="-apple-system,BlinkMacSystemFont,'Segoe UI',Helvetica,Arial,sans-serif" font-size="11" text-anchor="middle">TensorFlow</text>
<g transform="translate(136, 10)">
<rect width="48" height="48" rx="6" fill="#0d1117" stroke="none" stroke-width="0" />
<svg x="8" y="8" width="32" height="32" viewBox="0 0 24 24" fill="#FFFFFF">
<title>NVIDIA</title><path d="M8.948 8.798v-1.43a6.7 6.7 0 0 1 .424-.018c3.922-.124 6.493 3.374 6.493 3.374s-2.774 3.851-5.75 3.851c-.398 0-.787-.062-1.158-.185v-4.346c1.528.185 1.837.857 2.747 2.385l2.04-1.714s-1.492-1.952-4-1.952a6.016 6.016 0 0 0-.796.035m0-4.735v2.138l.424-.027c5.45-.185 9.01 4.47 9.01 4.47s-4.08 4.964-8.33 4.964c-.37 0-.733-.035-1.095-.097v1.325c.3.035.61.062.91.062 3.957 0 6.82-2.023 9.593-4.408.459.371 2.34 1.263 2.73 1.652-2.633 2.208-8.772 3.984-12.253 3.984-.335 0-.653-.018-.971-.053v1.864H24V4.063zm0 10.326v1.131c-3.657-.654-4.673-4.46-4.673-4.46s1.758-1.944 4.673-2.262v1.237H8.94c-1.528-.186-2.73 1.245-2.73 1.245s.68 2.412 2.739 3.11M2.456 10.9s2.164-3.197 6.5-3.533V6.201C4.153 6.59 0 10.653 0 10.653s2.35 6.802 8.948 7.42v-1.237c-4.84-.6-6.492-5.936-6.492-5.936z"/>
</svg>
</g>
<text x="160" y="71" fill="#8b949e" font-family="-apple-system,BlinkMacSystemFont,'Segoe UI',Helvetica,Arial,sans-serif" font-size="11" text-anchor="middle">CUDA</text>
</svg>