<svg xmlns="http://www.w3.org/2000/svg" width="552" height="84" viewBox="0 0 552 84">
<defs>
<filter id="glow" x="-30%" y="-30%" width="160%" height="160%"><feGaussianBlur stdDeviation="3" result="blur"/><feComposite in="SourceGraphic" in2="blur" operator="over"/></filter>
<linearGradient id="fav-0" x1="0%" y1="0%" x2="100%" y2="100%"><stop offset="0%" stop-color="#00f2fe"/><stop offset="50%" stop-color="#7f00ff"/><stop offset="100%" stop-color="#f093fb"/></linearGradient>
<linearGradient id="fav-1" x1="0%" y1="0%" x2="100%" y2="100%"><stop offset="0%" stop-color="#00f2fe"/><stop offset="50%" stop-color="#7f00ff"/><stop offset="100%" stop-color="#f093fb"/></linearGradient>
<linearGradient id="fav-2" x1="0%" y1="0%" x2="100%" y2="100%"><stop offset="0%" stop-color="#00f2fe"/><stop offset="50%" stop-color="#7f00ff"/><stop offset="100%" stop-color="#f093fb"/></linearGradient>
</defs>
<g transform="translate(20, 10)">
<rect width="48" height="48" rx="6" fill="#0d1117" stroke="url(#fav-0)" stroke-width="2" filter="url(#glow)"/>
<svg x="9.6" y="9.6" width="28.8" height="28.8" viewBox="0 0 24 24" fill="#FFFFFF">
<title>TypeScript</title><path d="M1.125 0C.502 0 0 .502 0 1.125v21.75C0 23.498.502 24 1.125 24h21.75c.623 0 1.125-.502 1.125-1.125V1.125C24 .502 23.498 0 22.875 0zm17.363 9.75c.612 0 1.154.037 1.627.111a6.38 6.38 0 0 1 1.306.34v2.458a3.95 3.95 0 0 0-.643-.361 5.093 5.093 0 0 0-.717-.26 5.453 5.453 0 0 0-1.426-.2c-.3 0-.573.028-.819.086a2.1 2.1 0 0 0-.623.242c-.17.104-.3.229-.393.374a.888.888 0 0 0-.14.49c0 .196.053.373.156.529.104.156.252.304.443.444s.423.276.696.41c.273.135.582.274.926.416.47.197.892.407 1.266.628.374.222.695.473.963.753.268.279.472.598.614.957.142.359.214.776.214 1.253 0 .657-.125 1.21-.373 1.656a3.033 3.033 0 0 1-1.012 1.085 4.38 4.38 0 0 1-1.487.596c-.566.12-1.163.18-1.79.18a9.916 9.916 0 0 1-1.84-.164 5.544 5.544 0 0 1-1.512-.493v-2.63a5.033 5.033 0 0 0 3.237 1.2c.333 0 .624-.03.872-.09.249-.06.456-.144.623-.25.166-.108.29-.234.373-.38a1.023 1.023 0 0 0-.074-1.089 2.12 2.12 0 0 0-.537-.5 5.597 5.597 0 0 0-.807-.444 27.72 27.72 0 0 0-1.007-.436c-.918-.383-1.602-.852-2.053-1.405-.45-.553-.676-1.222-.676-2.005 0-.614.123-1.141.369-1.582.246-.441.58-.804 1.004-1.089a4.494 4.494 0 0 1 1.47-.629 7.536 7.536 0 0 1 1.77-.201zm-15.113.188h9.563v2.166H9.506v9.646H6.789v-9.646H3.375z"/>
</svg>
</g>
<text x="44" y="71" fill="#8b949e" font-family="-apple-system,BlinkMacSystemFont,'Segoe UI',Helvetica,Arial,sans-serif" font-size="11" text-anchor="middle">TypeScript</text>
<g transform="translate(78, 10)">
<rect width="48" height="48" rx="6" fill="#0d1117" stroke="none" stroke-width="0" />
<svg x="9.6" y="9.6" width="28.8" height="28.8" viewBox="0 0 24 24" fill="#FFFFFF">
<title>JavaScript</title><path d="M0 0h24v24H0V0zm22.034 18.276c-.175-1.095-.888-2.015-3.003-2.873-.736-.345-1.554-.585-1.797-1.14-.091-.33-.105-.51-.046-.705.15-.646.915-.84 1.515-.66.39.12.75.42.976.9 1.034-.676 1.034-.676 1.755-1.125-.27-.42-.404-.601-.586-.78-.63-.705-1.469-1.065-2.834-1.034l-.705.089c-.676.165-1.32.525-1.71 1.005-1.14 1.291-.811 3.541.569 4.471 1.365 1.02 3.361 1.244 3.616 2.205.24 1.17-.87 1.545-1.966 1.41-.811-.18-1.26-.586-1.755-1.336l-1.83 1.051c.21.48.45.689.81 1.109 1.74 1.756 6.09 1.666 6.871-1.004.029-.09.24-.705.074-1.65l.046.067zm-8.983-7.245h-2.248c0 1.938-.009 3.864-.009 5.805 0 1.232.063 2.363-.138 2.711-.33.689-1.18.601-1.566.48-.396-.196-.597-.466-.83-.855-.063-.105-.11-.196-.127-.196l-1.825 1.125c.305.63.75 1.172 1.324 1.517.855.51 2.004.675 3.207.405.783-.226 1.458-.691 1.811-1.411.51-.93.402-2.07.397-3.346.012-2.054 0-4.109 0-6.179l.004-.056z"/>
</svg>
</g>
<text x="102" y="71" fill="#8b949e" font-family="-apple-system,BlinkMacSystemFont,'Segoe UI',Helvetica,Arial,sans-serif" font-size="11" text-anchor="middle">JavaScript</text>
<g transform="translate(136, 10)">
<rect width="48" height="48" rx="6" fill="#0d1117" stroke="url(#fav-1)" stroke-width="2" filter="url(#glow)"/>
<svg x="8" y="8" width="32" height="32" viewBox="0 0 24 24" fill="#FFFFFF">
<title>Python</title><path d="M14.25.18l.9.2.73.26.59.3.45.32.34.34.25.34.16.33.1.3.04.26.02.2-.01.13V8.5l-.05.63-.13.55-.21.46-.26.38-.3.31-.33.25-.35.19-.35.14-.33.1-.3.07-.26.04-.21.02H8.77l-.69.05-.59.14-.5.22-.41.27-.33.32-.27.35-.2.36-.15.37-.1.35-.07.32-.04.27-.02.21v3.06H3.17l-.21-.03-.28-.07-.32-.12-.35-.18-.36-.26-.36-.36-.35-.46-.32-.59-.28-.73-.21-.88-.14-1.05-.05-1.23.06-1.22.16-1.04.24-.87.32-.71.36-.57.4-.44.42-.33.42-.24.4-.16.36-.1.32-.05.24-.01h.16l.06.01h8.16v-.83H6.18l-.01-2.75-.02-.37.05-.34.11-.31.17-.28.25-.26.31-.23.38-.2.44-.18.51-.15.58-.12.64-.1.71-.06.77-.04.84-.02 1.27.05zm-6.3 1.98l-.23.33-.08.41.08.41.23.34.33.22.41.09.41-.09.33-.22.23-.34.08-.41-.08-.41-.23-.33-.33-.22-.41-.09-.41.09zm13.09 3.95l.28.06.32.12.35.18.36.27.36.35.35.47.32.59.28.73.21.88.14 1.04.05 1.23-.06 1.23-.16 1.04-.24.86-.32.71-.36.57-.4.45-.42.33-.42.24-.4.16-.36.09-.32.05-.24.02-.16-.01h-8.22v.82h5.84l.01 2.76.02.36-.05.34-.11.31-.17.29-.25.25-.31.24-.38.2-.44.17-.51.15-.58.13-.64.09-.71.07-.77.04-.84.01-1.27-.04-1.07-.14-.9-.2-.73-.25-.59-.3-.45-.33-.34-.34-.25-.34-.16-.33-.1-.3-.04-.25-.02-.2.01-.13v-5.34l.05-.64.13-.54.21-.46.26-.38.3-.32.33-.24.35-.2.35-.14.33-.1.3-.06.26-.04.21-.02.13-.01h5.84l.69-.05.59-.14.5-.21.41-.28.33-.32.27-.35.2-.36.15-.36.1-.35.07-.32.04-.28.02-.21V6.07h2.09l.14.01zm-6.47 14.25l-.23.33-.08.41.08.41.23.33.33.23.41.08.41-.08.33-.23.23-.33.08-.41-.08-.41-.23-.33-.33-.23-.41-.08-.41.08z"/>
</svg>
</g>
<text x="160" y="71" fill="#8b949e" font-family="-apple-system,BlinkMacSystemFont,'Segoe UI',Helvetica,Arial,sans-serif" font-size="11" text-anchor="middle">Python</text>
<g transform="translate(194, 10)">
<rect width="48" height="48" rx="6" fill="#0d1117" stroke="url(#fav-2)" stroke-width="2" filter="url(#glow)"/>
<svg x="8" y="8" width="32" height="32" viewBox="0 0 24 24" fill="#FFFFFF">
<title>Rust</title><path d="M23.8346 11.7033l-1.0073-.6236a13.7268 13.7268 0 00-.0283-.2936l.8656-.8069a.3483.3483 0 00-.1154-.578l-1.1066-.414a8.4958 8.4958 0 00-.087-.2856l.6904-.9587a.3462.3462 0 00-.2257-.5446l-1.1663-.1894a9.3574 9.3574 0 00-.1407-.2622l.49-1.0761a.3437.3437 0 00-.0274-.3361.3486.3486 0 00-.3006-.154l-1.1845.0416a6.7444 6.7444 0 00-.1873-.2268l.2723-1.153a.3472.3472 0 00-.417-.4172l-1.1532.2724a14.0183 14.0183 0 00-.2278-.1873l.0415-1.1845a.3442.3442 0 00-.49-.328l-1.076.491c-.0872-.0476-.1742-.0952-.2623-.1407l-.1903-1.1673A.3483.3483 0 0016.256.955l-.9597.6905a8.4867 8.4867 0 00-.2855-.086l-.414-1.1066a.3483.3483 0 00-.5781-.1154l-.8069.8666a9.2936 9.2936 0 00-.2936-.0284L12.2946.1683a.3462.3462 0 00-.5892 0l-.6236 1.0073a13.7383 13.7383 0 00-.2936.0284L9.9803.3374a.3462.3462 0 00-.578.1154l-.4141 1.1065c-.0962.0274-.1903.0567-.2855.086L7.744.955a.3483.3483 0 00-.5447.2258L7.009 2.348a9.3574 9.3574 0 00-.2622.1407l-1.0762-.491a.3462.3462 0 00-.49.328l.0416 1.1845a7.9826 7.9826 0 00-.2278.1873L3.8413 3.425a.3472.3472 0 00-.4171.4171l.2713 1.1531c-.0628.075-.1255.1509-.1863.2268l-1.1845-.0415a.3462.3462 0 00-.328.49l.491 1.0761a9.167 9.167 0 00-.1407.2622l-1.1662.1894a.3483.3483 0 00-.2258.5446l.6904.9587a13.303 13.303 0 00-.087.2855l-1.1065.414a.3483.3483 0 00-.1155.5781l.8656.807a9.2936 9.2936 0 00-.0283.2935l-1.0073.6236a.3442.3442 0 000 .5892l1.0073.6236c.008.0982.0182.1964.0283.2936l-.8656.8079a.3462.3462 0 00.1155.578l1.1065.4141c.0273.0962.0567.1914.087.2855l-.6904.9587a.3452.3452 0 00.2268.5447l1.1662.1893c.0456.088.0922.1751.1408.2622l-.491 1.0762a.3462.3462 0 00.328.49l1.1834-.0415c.0618.0769.1235.1528.1873.2277l-.2713 1.1541a.3462.3462 0 00.4171.4161l1.153-.2713c.075.0638.151.1255.2279.1863l-.0415 1.1845a.3442.3442 0 00.49.327l1.0761-.49c.087.0486.1741.0951.2622.1407l.1903 1.1662a.3483.3483 0 00.5447.2268l.9587-.6904a9.299 9.299 0 00.2855.087l.414 1.1066a.3452.3452 0 00.5781.1154l.8079-.8656c.0972.0111.1954.0203.2936.0294l.6236 1.0073a.3472.3472 0 00.5892 0l.6236-1.0073c.0982-.0091.1964-.0183.2936-.0294l.8069.8656a.3483.3483 0 00.578-.1154l.4141-1.1066a8.4626 8.4626 0 00.2855-.087l.9587.6904a.3452.3452 0 00.5447-.2268l.1903-1.1662c.088-.0456.1751-.0931.2622-.1407l1.0762.49a.3472.3472 0 00.49-.327l-.0415-1.1845a6.7267 6.7267 0 00.2267-.1863l1.1531.2713a.3472.3472 0 00.4171-.416l-.2713-1.1542c.0628-.0749.1255-.1508.1863-.2278l1.1845.0415a.3442.3442 0 00.328-.49l-.49-1.076c.0475-.0872.0951-.1742.1407-.2623l1.1662-.1893a.3483.3483 0 00.2258-.5447l-.6904-.9587.087-.2855 1.1066-.414a.3462.3462 0 00.1154-.5781l-.8656-.8079c.0101-.0972.0202-.1954.0283-.2936l1.0073-.6236a.3442.3442 0 000-.5892zm-6.7413 8.3551a.7138.7138 0 01.2986-1.396.714.714 0 11-.2997 1.396zm-.3422-2.3142a.649.649 0 00-.7715.5l-.3573 1.6685c-1.1035.501-2.3285.7795-3.6193.7795a8.7368 8.7368 0 01-3.6951-.814l-.3574-1.6684a.648.648 0 00-.7714-.499l-1.473.3158a8.7216 8.7216 0 01-.7613-.898h7.1676c.081 0 .1356-.0141.1356-.088v-2.536c0-.074-.0536-.0881-.1356-.0881h-2.0966v-1.6077h2.2677c.2065 0 1.1065.0587 1.394 1.2088.0901.3533.2875 1.5044.4232 1.8729.1346.413.6833 1.2381 1.2685 1.2381h3.5716a.7492.7492 0 00.1296-.0131 8.7874 8.7874 0 01-.8119.9526zM6.8369 20.024a.714.714 0 11-.2997-1.396.714.714 0 01.2997 1.396zM4.1177 8.9972a.7137.7137 0 11-1.304.5791.7137.7137 0 011.304-.579zm-.8352 1.9813l1.5347-.6824a.65.65 0 00.33-.8585l-.3158-.7147h1.2432v5.6025H3.5669a8.7753 8.7753 0 01-.2834-3.348zm6.7343-.5437V8.7836h2.9601c.153 0 1.0792.1772 1.0792.8697 0 .575-.7107.7815-1.2948.7815zm10.7574 1.4862c0 .2187-.008.4363-.0243.651h-.9c-.09 0-.1265.0586-.1265.1477v.413c0 .973-.5487 1.1846-1.0296 1.2382-.4576.0517-.9648-.1913-1.0275-.4717-.2704-1.5186-.7198-1.8436-1.4305-2.4034.8817-.5599 1.799-1.386 1.799-2.4915 0-1.1936-.819-1.9458-1.3769-2.3153-.7825-.5163-1.6491-.6195-1.883-.6195H5.4682a8.7651 8.7651 0 014.907-2.7699l1.0974 1.151a.648.648 0 00.9182.0213l1.227-1.1743a8.7753 8.7753 0 016.0044 4.2762l-.8403 1.8982a.652.652 0 00.33.8585l1.6178.7188c.0283.2875.0425.577.0425.8717zm-9.3006-9.5993a.7128.7128 0 11.984 1.0316.7137.7137 0 01-.984-1.0316zm8.3389 6.71a.7107.7107 0 01.9395-.3625.7137.7137 0 11-.9405.3635z"/>
</svg>
</g>
<text x="218" y="71" fill="#8b949e" font-family="-apple-system,BlinkMacSystemFont,'Segoe UI',Helvetica,Arial,sans-serif" font-size="11" text-anchor="middle">Rust</text>
<g transform="translate(252, 10)">
<rect width="48" height="48" rx="6" fill="#0d1117" stroke="none" stroke-width="0" />
<svg x="10.4" y="10.4" width="27.2" height="27.2" viewBox="0 0 24 24" fill="#FFFFFF">
<title>C</title><path d="M16.5921 9.1962s-.354-3.298-3.627-3.39c-3.2741-.09-4.9552 2.474-4.9552 6.14 0 3.6651 1.858 6.5972 5.0451 6.5972 3.184 0 3.5381-3.665 3.5381-3.665l6.1041.365s.36 3.31-2.196 5.836c-2.552 2.5241-5.6901 2.9371-7.8762 2.9201-2.19-.017-5.2261.034-8.1602-2.97-2.938-3.0101-3.436-5.9302-3.436-8.8002 0-2.8701.556-6.6702 4.047-9.5502C7.444.72 9.849 0 12.254 0c10.0422 0 10.7172 9.2602 10.7172 9.2602z"/>
</svg>
</g>
<text x="276" y="71" fill="#8b949e" font-family="-apple-system,BlinkMacSystemFont,'Segoe UI',Helvetica,Arial,sans-serif" font-size="11" text-anchor="middle">C</text>
<g transform="translate(310, 10)">
<rect width="48" height="48" rx="6" fill="#0d1117" stroke="none" stroke-width="0" />
<svg x="10.4" y="10.4" width="27.2" height="27.2" viewBox="0 0 24 24" fill="#FFFFFF">
<title>C++</title><path d="M22.394 6c-.167-.29-.398-.543-.652-.69L12.926.22c-.509-.294-1.34-.294-1.848 0L2.26 5.31c-.508.293-.923 1.013-.923 1.6v10.18c0 .294.104.62.271.91.167.29.398.543.652.69l8.816 5.09c.508.293 1.34.293 1.848 0l8.816-5.09c.254-.147.485-.4.652-.69.167-.29.27-.616.27-.91V6.91c.003-.294-.1-.62-.268-.91zM12 19.11c-3.92 0-7.109-3.19-7.109-7.11 0-3.92 3.19-7.11 7.11-7.11a7.133 7.133 0 016.156 3.553l-3.076 1.78a3.567 3.567 0 00-3.08-1.78A3.56 3.56 0 008.444 12 3.56 3.56 0 0012 15.555a3.57 3.57 0 003.08-1.778l3.078 1.78A7.135 7.135 0 0112 19.11zm7.11-6.715h-.79v.79h-.79v-.79h-.79v-.79h.79v-.79h.79v.79h.79zm2.962 0h-.79v.79h-.79v-.79h-.79v-.79h.79v-.79h.79v.79h.79z"/>
</svg>
</g>
<text x="334" y="71" fill="#8b949e" font-family="-apple-system,BlinkMacSystemFont,'Segoe UI',Helvetica,Arial,sans-serif" font-size="11" text-anchor="middle">C++</text>
<g transform="translate(368, 10)">
<rect width="48" height="48" rx="6" fill="#0d1117" stroke="none" stroke-width="0" />
<svg x="4.800000000000001" y="4.800000000000001" width="38.4" height="38.4" viewBox="0 0 24 24" fill="#FFFFFF">
<title>LaTeX</title><path d="M2.176 2.814c.233.42.476.78.73 1.09.247-.013 1.132.456 1.312.523.508.282 1.063.63 1.567.966.505.337.96.662 1.272.9.156.12.278.218.352.286a.483.483 0 01.078.082.08.08 0 01.01.021.06.06 0 01-.004.047.057.057 0 01-.04.03.077.077 0 01-.028 0c-.057 0-.203-.163-.497-.415a23.474 23.474 0 00-2.759-1.827c-.504-.28-.956-.542-1.264-.613a2.322 2.322 0 00-.36-.025 2.706 2.706 0 00-.788.133c.494.414.91.716 1.28.949-.57-.182-1.182-.21-1.902.133.526.329.967.567 1.354.745 1.103.156 2.258.696 3.224 1.309.483.307.904.615 1.219.867.157.125.29.237.39.328.098.091.174.154.197.21.03.073-.019.104-.084.058-.032-.022-.088-.102-.184-.191a7.35 7.35 0 00-.384-.327c-.312-.25-.729-.552-1.209-.857-.893-.562-2.232-1.013-3.173-1.397-.602-.11-1.225-.06-1.906.39.449.2.837.349 1.182.463.812 0 1.892.365 2.935.922 1.042.556 2.04 1.214 2.523 1.774.066.077-.016.126-.074.07-.52-.495-1.463-1.204-2.498-1.756-.639-.337-2.153-1.01-2.886-1.01l.004.002c-.567.02-1.13.195-1.679.716.477.118.885.196 1.244.249-.44.088-.87.3-1.289.722.324.07.616.122.882.162-.328.159-.639.404-.923.78.373.03.703.042 1 .044-.36.166-.696.43-.996.85.533.027.98.025 1.364.003-.422.172-.812.464-1.145.968.662.01 1.188-.022 1.628-.076l-.006.002c.99-.073 2.297.127 2.962.847.052.057-.024.118-.072.074-.648-.58-1.493-.827-2.89-.921h-.002c-.543.149-1.046.446-1.46 1.074.536.008.982-.013 1.366-.05-.469.257-.873.644-1.139 1.306.483-.092.888-.19 1.237-.292-.363.265-.668.636-.873 1.194.324-.072.612-.146.871-.221a2.519 2.519 0 00-.513 1.095c.352-.13.655-.254.926-.377-.257.3-.453.681-.55 1.19.495-.199.899-.388 1.238-.568-.31.333-.543.76-.635 1.356a11.816 11.816 0 001.442-.744c-.433.362-.764.843-.879 1.587.788-.348 1.339-.663 1.767-.955-.184.372-.282.806-.235 1.348.762-.584 1.243-1.056 1.602-1.473-.024.269-.003.56.077.884.546-.939 1.089-1.212 1.65-1.526-.895.451-.762.79-.762 1.184.683-.72 1.635-1.482 1.927-1.96-.39.585-.547 1.14-.65 1.63-1.993 1.054-3.207 1.329-4.568 1.75.528.194 1.093.383.859.652l-.624.622c.399-.124.805-.3 1.158-.059-.035.327-.447.492-.8.683.621-.224.756-.172.92-.12.081.393-.203.603-.388.862 1.565-1.19 3.606-2.13 5.044-2.522 2.022-.681 4.63-1.389 5.339-3.115l.712-2.847-.004.004c-.111-.034-.246-.063-.35-.133a.651.651 0 01-.235-.297c-.252.065-.44.03-.56-.088-.117-.117-.167-.296-.203-.491-.203.041-.362.016-.467-.077-.116-.101-.17-.26-.198-.444l-.008-.039.037-.015a.842.842 0 00.302-.194.257.257 0 00.07-.225l-.006-.037.03-.016c.163-.093.345-.169.428-.28a.274.274 0 00.053-.21.88.88 0 00-.155-.357l-.027-.04.04-.027c.118-.09.244-.179.308-.26.032-.04.048-.076.047-.11 0-.033-.015-.07-.064-.117l-.098-.094.135.006c.213.01.395-.007.538-.053a.504.504 0 00.274-.197c-.007-.033-.02-.063-.02-.098a.484.484 0 01.967 0c0 .044-.015.084-.026.125.177.014.347.01.507-.06l.002.001.035-.013c.236-.085.334.045.72-.456-1.69-2.19-4.157-.635-4.977 1.622-.21.576-1.405.578-1.751 0-1.37-2.95-5.53-6.068-9.07-7.218zm.86 2.145c.906.293 1.913.782 2.77 1.328.43.273.813.543 1.114.779.301.236.566.473.62.575.054.102 0 .14-.082.06-.081-.078-.303-.32-.6-.553-.298-.234-.68-.505-1.106-.777-.775-.49-1.982-.958-2.716-1.412zm-1.7 2.7c1.116.014 2.35.447 3.434.997.541.275 1.023.567 1.395.83.372.263.672.524.734.657.061.134-.02.13-.087.055a4.401 4.401 0 00-.704-.626 11.47 11.47 0 00-1.385-.826C3.76 8.264 2.439 7.82 1.336 7.66zm14.916.772a.381.381 0 100 .762.381.381 0 000-.762zM1.7 8.478c.822.072 1.72.368 2.534.75 1.086.509 2.035 1.158 2.434 1.667.035.045-.014.131-.08.062-.428-.44-1.322-1.131-2.397-1.635-.913-.421-2.282-.87-3.262-.78.251-.03.497-.088.771-.064zm16.339.01c-.366.475-.53.423-.703.464.094.43.35.586.585.77l-.06.012c2.315-.447 4.186-.286 6.139-.236l-5.961-1.01zm-.178 1.246h-.002l-.004.016.006-.016zm-.625-.757c-.183.074-.373.076-.563.059a.477.477 0 01-.42.26.483.483 0 01-.435-.278.609.609 0 01-.274.188c-.139.045-.308.057-.493.055.02.035.054.068.055.104a.273.273 0 01-.069.174c-.073.092-.189.17-.295.248.087.141.137.26.149.362a.39.39 0 01-.07.284c-.106.14-.288.21-.439.293a.374.374 0 01-.09.268.89.89 0 01-.297.198c.027.156.074.283.154.354.086.076.211.103.425.047l.055-.014.01.055c.033.207.088.385.187.483.1.099.244.135.503.055l.049-.015.016.048c.05.142.12.223.209.282.087.06.247.112.358.147.798-.869 1.525-1.772 1.884-2.86-.225-.177-.506-.338-.609-.797zm-16.23.386c1.165-.08 2.283.196 3.202.626.92.43 1.658.939 1.974 1.307.075.087-.019.12-.072.072a8.187 8.187 0 00-1.947-1.29c-.904-.414-2.193-.644-3.157-.715zm.864.802c.61.02 1.24.155 1.806.352.756.262 1.421.614 1.747.98.045.05-.007.127-.074.069-.349-.304-.961-.693-1.706-.951-.574-.195-1.613-.369-2.268-.397.197-.022.292-.06.495-.053zm1.05 1.788c.423.034.886.133 1.341.407.043.026.049.136-.049.09-.856-.402-1.326-.49-2.457-.31.386-.128.74-.221 1.164-.187zm-.04.788c.4-.035.784-.002 1.297.204.044.018.08.126-.033.094-.857-.243-1.167-.328-2.287.104.28-.229.622-.366 1.023-.402zm1.285.687c.317-.023.635-.026.934.006.052.006.055.105-.006.102a7.87 7.87 0 00-1.837.115c-.243.046-.423.043-1.405.458.287-.233.794-.452 1.385-.56a8.91 8.91 0 01.93-.12zm1.28.49c.099.003.062.104.006.103-.728-.01-1.304.132-1.875.295a9.78 9.78 0 00-1.318.525c.283-.23.713-.457 1.291-.622.579-.166 1.248-.326 1.896-.302zm.528.398c.036-.005.105.084.018.1-.73.137-1.244.267-1.794.454-.216.074-.58.207-1.243.587.26-.269.656-.492 1.213-.68.558-.19 1.196-.37 1.806-.46zm.311.507c.075-.012.097.087.02.102-1.217.241-1.76.556-2.54 1.144.504-.523 1.297-1.051 2.52-1.246zm.595.448c.087-.013.11.087.021.1-.872.13-1.477.553-2.255 1.33.295-.493 1.004-1.24 2.234-1.43zm.372.39c.046-.006.114.073.023.1a2.634 2.634 0 00-.669.3c-.182.118-.3.2-.597.507.111-.245.296-.434.542-.59.247-.157.509-.293.7-.317z"/>
</svg>
</g>
<text x="392" y="71" fill="#8b949e" font-family="-apple-system,BlinkMacSystemFont,'Segoe UI',Helvetica,Arial,sans-serif" font-size="11" text-anchor="middle">LaTeX</text>
<g transform="translate(426, 10)">
<rect width="48" height="48" rx="6" fill="#0d1117" stroke="none" stroke-width="0" />
<svg x="7.199999999999999" y="7.199999999999999" width="33.6" height="33.6" viewBox="0 0 512 512" fill="#FFFFFF">
<path fill="#FFFFFF" d="M495.855 367.604c-28.98-73.177-53.037-148.231-80.725-221.893c-12.23-31.362-24.198-62.986-40.868-92.33c-6.62-10.535-12.956-22.119-23.814-28.86c-2.739-1.74-5.828-2.479-8.88-2.42c-5.084.096-10.14 2.37-14.025 5.65c-14.571 11.543-23.209 28.334-32.896 43.793c-17.114 28.698-35.156 58.748-63.773 77.396c-13.44 9.485-31.039 10.514-43.995 20.686c-17.72 13.36-29.767 32.31-44.298 48.737c-3.31 3.956-8.436 5.53-12.916 7.67C86.315 243.71 42.945 261.35 0 279.916c36.367 28.132 75.115 53.157 112.208 80.321c10.172-2.018 20.383-6.196 30.877-4.339c16.63 5.207 26.377 21.15 34.006 35.721c15.5 31.765 26.7 65.307 39.253 98.283c20.988-1.493 39.878-12.31 56.104-25.025c31.24-25.307 55.034-58.001 81.23-88.192c12.552-13.199 25.347-28.92 44.197-32.593c19.05-4.601 39.454 2.22 53.581 15.338c19.818 17.719 37.376 38.203 60.544 51.765c-3.108-15.338-10.575-29.101-16.145-43.592M171.844 316.04c-18.284 10.817-37.699 19.717-56.71 29.162c-29.828-19.98-58.889-41.15-88.192-61.856c39.515-17.315 79.635-33.4 119.675-49.545c18.97 14.813 38.547 28.88 57.517 43.693c-8.92 14.248-19.657 27.487-32.29 38.546m40.665-49.646c-18.85-14.167-37.94-27.951-56.508-42.482c11.907-16.226 24.945-31.906 40.565-44.701c10.333-6.62 22.966-8.456 33.703-14.43c25.469-12.714 42.845-36.044 59.434-58.324c-21.271 55.216-43.975 110.654-77.194 159.937"/>
</svg>
</g>
<text x="450" y="71" fill="#8b949e" font-family="-apple-system,BlinkMacSystemFont,'Segoe UI',Helvetica,Arial,sans-serif" font-size="11" text-anchor="middle">MATLAB</text>
<g transform="translate(484, 10)">
<rect width="48" height="48" rx="6" fill="#0d1117" stroke="none" stroke-width="0" />
<svg x="6.399999999999999" y="6.399999999999999" width="35.2" height="35.2" viewBox="0 0 24 24" fill="#FFFFFF">
<path fill="#FFFFFF" d="m15.638 4.566l.056.032c-.758.4-2.924 1.689-2.924 3.332c0 .554.317 1.088.614 1.59c.262.442.509.857.509 1.238c0 .957-.933 1.7-1.46 2.042l-.1-.058c.199-.243.444-.65.444-1.084c0-.598-.307-1.076-.618-1.561c-.322-.501-.648-1.01-.648-1.67c0-2.292 3.115-3.522 4.127-3.861m-4.095 1.212c1.253-1.12 2.622-2.344 2.622-4.185c0-.833-.341-1.365-.51-1.578L13.6.046c.04.166.1.472.1.872c0 1.676-1.422 2.85-2.798 3.988C9.611 5.974 8.36 7.008 8.36 8.392c0 1.985 1.958 3.206 2.785 3.722l.063.04l.05-.03q-.067-.074-.142-.152c-.636-.677-1.602-1.704-1.602-3.275c0-1.103.974-1.974 2.03-2.919m-.452 9.908c1.764 0 2.998-.253 3.546-.408l.832.48c-.793.403-2.551.71-4.382.71c-2.153 0-4.507-.462-4.514-1.078c-.005-.34.765-.566 1.595-.712l.05.029s-.281.101-.278.333c.004.35 1.42.646 3.15.646m-3.529 2.171c0-.408.839-.6 1.223-.677l.05.03c-.066.049-.102.116-.102.173c0 .267.93.511 2.356.511c1.278 0 1.988-.157 2.41-.258l.99.573c-.045.032-1.02.645-3.402.645c-1.731 0-3.525-.432-3.525-.997m8.529-1.728c1.18-.673 2.361-1.469 2.428-2.747c.044-.839-.727-1.454-1.57-1.29l.045-.112v-.002c.212-.064.474-.116.767-.116c.943 0 1.666.565 1.758 1.356c.186 1.586-2.062 2.618-3.321 2.973zm1.975 2.988c.01 1.09-3.698 1.738-7.012 1.767c-2.861.025-7.474-.516-7.484-1.605c-.006-.753 2-1.275 3.09-1.425l.115.066s-1.625.377-1.62 1.062c.006.683 3.425 1.274 5.894 1.253c3.825-.034 6.414-.657 6.72-1.502l.054-.031c.112.082.24.217.243.415M6.43 21.337a26 26 0 0 0 4.279.325c6.208-.054 7.96-1.58 8.23-1.912l.047.028c-.064 1.208-3.347 2.212-7.396 2.247c-2.061.018-3.937-.22-5.285-.615zm2.602-9.283c-1.079.083-3.396.426-3.396 1.036c0 .462 2.124 1.113 5.452 1.113c2.994 0 4.884-.565 5.325-.78l-.643-.375c-.46.125-2.169.506-4.682.506c-1.48 0-4.03-.273-4.03-.69c0-.374 1.591-.663 2.048-.745l.029-.005z"/>
</svg>
</g>
<text x="508" y="71" fill="#8b949e" font-family="-apple-system,BlinkMacSystemFont,'Segoe UI',Helvetica,Arial,sans-serif" font-size="11" text-anchor="middle">Java</text>
</svg>