<svg xmlns="http://www.w3.org/2000/svg" width="320" height="98" viewBox="0 0 320 98">
<defs>
<filter id="glow" x="-30%" y="-30%" width="160%" height="160%"><feGaussianBlur stdDeviation="3" result="blur"/><feComposite in="SourceGraphic" in2="blur" operator="over"/></filter>
<linearGradient id="fav-0" x1="0%" y1="0%" x2="100%" y2="100%"><stop offset="0%" stop-color="#00f2fe"/><stop offset="50%" stop-color="#7f00ff"/><stop offset="100%" stop-color="#f093fb"/></linearGradient>
<linearGradient id="fav-1" x1="0%" y1="0%" x2="100%" y2="100%"><stop offset="0%" stop-color="#00f2fe"/><stop offset="50%" stop-color="#7f00ff"/><stop offset="100%" stop-color="#f093fb"/></linearGradient>
</defs>
<g transform="translate(20, 10)">
<rect width="48" height="48" rx="6" fill="#0d1117" stroke="none" stroke-width="0" />
<svg x="7.199999999999999" y="7.199999999999999" width="33.6" height="33.6" viewBox="0 0 24 24" fill="#FFFFFF">
<title>Node.js</title><path d="M11.998,24c-0.321,0-0.641-0.084-0.922-0.247l-2.936-1.737c-0.438-0.245-0.224-0.332-0.08-0.383 c0.585-0.203,0.703-0.25,1.328-0.604c0.065-0.037,0.151-0.023,0.218,0.017l2.256,1.339c0.082,0.045,0.197,0.045,0.272,0l8.795-5.076 c0.082-0.047,0.134-0.141,0.134-0.238V6.921c0-0.099-0.053-0.192-0.137-0.242l-8.791-5.072c-0.081-0.047-0.189-0.047-0.271,0 L3.075,6.68C2.99,6.729,2.936,6.825,2.936,6.921v10.15c0,0.097,0.054,0.189,0.139,0.235l2.409,1.392 c1.307,0.654,2.108-0.116,2.108-0.89V7.787c0-0.142,0.114-0.253,0.256-0.253h1.115c0.139,0,0.255,0.112,0.255,0.253v10.021 c0,1.745-0.95,2.745-2.604,2.745c-0.508,0-0.909,0-2.026-0.551L2.28,18.675c-0.57-0.329-0.922-0.945-0.922-1.604V6.921 c0-0.659,0.353-1.275,0.922-1.603l8.795-5.082c0.557-0.315,1.296-0.315,1.848,0l8.794,5.082c0.57,0.329,0.924,0.944,0.924,1.603 v10.15c0,0.659-0.354,1.273-0.924,1.604l-8.794,5.078C12.643,23.916,12.324,24,11.998,24z M19.099,13.993 c0-1.9-1.284-2.406-3.987-2.763c-2.731-0.361-3.009-0.548-3.009-1.187c0-0.528,0.235-1.233,2.258-1.233 c1.807,0,2.473,0.389,2.747,1.607c0.024,0.115,0.129,0.199,0.247,0.199h1.141c0.071,0,0.138-0.031,0.186-0.081 c0.048-0.054,0.074-0.123,0.067-0.196c-0.177-2.098-1.571-3.076-4.388-3.076c-2.508,0-4.004,1.058-4.004,2.833 c0,1.925,1.488,2.457,3.895,2.695c2.88,0.282,3.103,0.703,3.103,1.269c0,0.983-0.789,1.402-2.642,1.402 c-2.327,0-2.839-0.584-3.011-1.742c-0.02-0.124-0.126-0.215-0.253-0.215h-1.137c-0.141,0-0.254,0.112-0.254,0.253 c0,1.482,0.806,3.248,4.655,3.248C17.501,17.007,19.099,15.91,19.099,13.993z"/>
</svg>
</g>
<text x="44" y="71" fill="#8b949e" font-family="-apple-system,BlinkMacSystemFont,'Segoe UI',Helvetica,Arial,sans-serif" font-size="11" text-anchor="middle">Node.js</text>
<text x="44" y="82" fill="#6e7681" font-family="-apple-system,BlinkMacSystemFont,'Segoe UI',Helvetica,Arial,sans-serif" font-size="9" text-anchor="middle" font-style="italic">used to use</text>
<g transform="translate(78, 10)">
<rect width="48" height="48" rx="6" fill="#0d1117" stroke="none" stroke-width="0" />
<svg x="8" y="8" width="32" height="32" viewBox="0 0 24 24" fill="#FFFFFF">
<title>npm</title><path d="M1.763 0C.786 0 0 .786 0 1.763v20.474C0 23.214.786 24 1.763 24h20.474c.977 0 1.763-.786 1.763-1.763V1.763C24 .786 23.214 0 22.237 0zM5.13 5.323l13.837.019-.009 13.836h-3.464l.01-10.382h-3.456L12.04 19.17H5.113z"/>
</svg>
</g>
<text x="102" y="71" fill="#8b949e" font-family="-apple-system,BlinkMacSystemFont,'Segoe UI',Helvetica,Arial,sans-serif" font-size="11" text-anchor="middle">npm</text>
<text x="102" y="82" fill="#6e7681" font-family="-apple-system,BlinkMacSystemFont,'Segoe UI',Helvetica,Arial,sans-serif" font-size="9" text-anchor="middle" font-style="italic">used to use</text>
<g transform="translate(136, 10)">
<rect width="48" height="48" rx="6" fill="#0d1117" stroke="none" stroke-width="0" />
<svg x="8" y="8" width="32" height="32" viewBox="0 0 24 24" fill="#FFFFFF">
<title>pnpm</title><path d="M0 0v7.5h7.5V0zm8.25 0v7.5h7.498V0zm8.25 0v7.5H24V0zM2 2h3.5v3.5H2zm8.25 0h3.498v3.5H10.25zm8.25 0H22v3.5h-3.5zM8.25 8.25v7.5h7.498v-7.5zm8.25 0v7.5H24v-7.5zm2 2H22v3.5h-3.5zM0 16.5V24h7.5v-7.5zm8.25 0V24h7.498v-7.5zm8.25 0V24H24v-7.5z"/>
</svg>
</g>
<text x="160" y="71" fill="#8b949e" font-family="-apple-system,BlinkMacSystemFont,'Segoe UI',Helvetica,Arial,sans-serif" font-size="11" text-anchor="middle">pnpm</text>
<text x="160" y="82" fill="#6e7681" font-family="-apple-system,BlinkMacSystemFont,'Segoe UI',Helvetica,Arial,sans-serif" font-size="9" text-anchor="middle" font-style="italic">used to use</text>
<g transform="translate(194, 10)">
<rect width="48" height="48" rx="6" fill="#0d1117" stroke="url(#fav-0)" stroke-width="2" filter="url(#glow)"/>
<svg x="7.199999999999999" y="7.199999999999999" width="33.6" height="33.6" viewBox="0 0 24 24" fill="#FFFFFF">
<title>Bun</title><path d="M12 22.596c6.628 0 12-4.338 12-9.688 0-3.318-2.057-6.248-5.219-7.986-1.286-.715-2.297-1.357-3.139-1.89C14.058 2.025 13.08 1.404 12 1.404c-1.097 0-2.334.785-3.966 1.821a49.92 49.92 0 0 1-2.816 1.697C2.057 6.66 0 9.59 0 12.908c0 5.35 5.372 9.687 12 9.687v.001ZM10.599 4.715c.334-.759.503-1.58.498-2.409 0-.145.202-.187.23-.029.658 2.783-.902 4.162-2.057 4.624-.124.048-.199-.121-.103-.209a5.763 5.763 0 0 0 1.432-1.977Zm2.058-.102a5.82 5.82 0 0 0-.782-2.306v-.016c-.069-.123.086-.263.185-.172 1.962 2.111 1.307 4.067.556 5.051-.082.103-.23-.003-.189-.126a5.85 5.85 0 0 0 .23-2.431Zm1.776-.561a5.727 5.727 0 0 0-1.612-1.806v-.014c-.112-.085-.024-.274.114-.218 2.595 1.087 2.774 3.18 2.459 4.407a.116.116 0 0 1-.049.071.11.11 0 0 1-.153-.026.122.122 0 0 1-.022-.083 5.891 5.891 0 0 0-.737-2.331Zm-5.087.561c-.617.546-1.282.76-2.063 1-.117 0-.195-.078-.156-.181 1.752-.909 2.376-1.649 2.999-2.778 0 0 .155-.118.188.085 0 .304-.349 1.329-.968 1.874Zm4.945 11.237a2.957 2.957 0 0 1-.937 1.553c-.346.346-.8.565-1.286.62a2.178 2.178 0 0 1-1.327-.62 2.955 2.955 0 0 1-.925-1.553.244.244 0 0 1 .064-.198.234.234 0 0 1 .193-.069h3.965a.226.226 0 0 1 .19.07c.05.053.073.125.063.197Zm-5.458-2.176a1.862 1.862 0 0 1-2.384-.245 1.98 1.98 0 0 1-.233-2.447c.207-.319.503-.566.848-.713a1.84 1.84 0 0 1 1.092-.11c.366.075.703.261.967.531a1.98 1.98 0 0 1 .408 2.114 1.931 1.931 0 0 1-.698.869v.001Zm8.495.005a1.86 1.86 0 0 1-2.381-.253 1.964 1.964 0 0 1-.547-1.366c0-.384.11-.76.32-1.079.207-.319.503-.567.849-.713a1.844 1.844 0 0 1 1.093-.108c.367.076.704.262.968.534a1.98 1.98 0 0 1 .4 2.117 1.932 1.932 0 0 1-.702.868Z"/>
</svg>
</g>
<text x="218" y="71" fill="#8b949e" font-family="-apple-system,BlinkMacSystemFont,'Segoe UI',Helvetica,Arial,sans-serif" font-size="11" text-anchor="middle">Bun</text>
<g transform="translate(252, 10)">
<rect width="48" height="48" rx="6" fill="#0d1117" stroke="url(#fav-1)" stroke-width="2" filter="url(#glow)"/>
<svg x="8" y="8" width="32" height="32" viewBox="0 0 24 24" fill="#FFFFFF">
<title>uv</title><path d="m0 .1058.0504 11.9496.0403 9.5597c.0055 1.3199 1.08 2.3854 2.4 2.3798l9.5596-.0403 5.9749-.0252.6075-.0026c1.316-.0056 2.3799-1.0963 2.3799-2.4123h1.0946v2.3894L24 23.9042 23.8992.005 12.9056.0513l.0463 9.5245v5.9637h-1.9583L11.04 9.584 10.9936.0594Z"/>
</svg>
</g>
<text x="276" y="71" fill="#8b949e" font-family="-apple-system,BlinkMacSystemFont,'Segoe UI',Helvetica,Arial,sans-serif" font-size="11" text-anchor="middle">uv</text>
</svg>